<svg width="99" height="30" viewBox="0 0 99 30" fill="none" xmlns="http://www.w3.org/2000/svg">
<path d="M0.760273 7.55212V11.0081H8.21627L0.280273 19.6161V22.4961H13.5923V19.0401H5.52827L13.5923 10.4641V7.55212H0.760273Z" fill="white"/>
<path d="M28.5385 9.63212C27.5465 8.06412 25.5625 7.16812 23.5145 7.16812C19.2905 7.16812 16.2185 10.4961 16.2185 15.0081C16.2185 19.6481 19.4185 22.8801 23.4185 22.8801C25.5625 22.8801 27.5465 21.7921 28.5385 20.1601V22.4961H32.2505V7.55212H28.5385V9.63212ZM24.1865 19.4241C21.7545 19.4241 19.9305 17.4081 19.9305 15.0081C19.9305 12.6081 21.7545 10.6241 24.1545 10.6241C26.3625 10.6241 28.4745 12.4481 28.4745 15.0081C28.4745 17.5041 26.4905 19.4241 24.1865 19.4241Z" fill="white"/>
<path d="M45.349 7.16812C43.557 7.16812 41.413 7.93612 40.389 9.53612V7.55212H36.677V29.7921H40.389V20.5121C41.413 22.1121 43.493 22.8801 45.381 22.8801C49.317 22.8801 52.709 19.8081 52.709 15.0401C52.709 10.2401 49.285 7.16812 45.349 7.16812ZM44.773 19.4241C42.629 19.4241 40.453 17.6961 40.453 15.0401C40.453 12.4161 42.501 10.6241 44.773 10.6241C47.077 10.6241 48.997 12.5761 48.997 15.0401C48.997 17.5361 47.077 19.4241 44.773 19.4241Z" fill="white"/>
<path d="M64.9115 7.16812C63.1195 7.16812 60.9755 7.93612 59.9515 9.53612V7.55212H56.2395V29.7921H59.9515V20.5121C60.9755 22.1121 63.0555 22.8801 64.9435 22.8801C68.8795 22.8801 72.2715 19.8081 72.2715 15.0401C72.2715 10.2401 68.8475 7.16812 64.9115 7.16812ZM64.3355 19.4241C62.1915 19.4241 60.0155 17.6961 60.0155 15.0401C60.0155 12.4161 62.0635 10.6241 64.3355 10.6241C66.6395 10.6241 68.5595 12.5761 68.5595 15.0401C68.5595 17.5361 66.6395 19.4241 64.3355 19.4241Z" fill="white"/>
<path d="M77.658 4.54412C79.002 4.54412 80.058 3.55212 80.058 2.27212C80.058 0.960121 79.002 0.00012207 77.658 0.00012207C76.346 0.00012207 75.226 0.960121 75.226 2.27212C75.226 3.55212 76.346 4.54412 77.658 4.54412ZM79.514 22.4961V7.55212H75.802V22.4961H79.514Z" fill="white"/>
<path d="M98.487 14.8801C98.487 10.2081 95.127 7.16812 90.871 7.16812C86.583 7.16812 83.031 10.2401 83.031 15.0081C83.031 19.6801 86.423 22.8801 90.871 22.8801C93.591 22.8801 96.247 21.6641 97.623 19.4881L95.127 17.6001C94.263 18.8161 92.695 19.5201 91.095 19.5201C88.855 19.5201 87.255 18.4001 86.839 16.3201H98.423C98.455 15.7761 98.487 15.2961 98.487 14.8801ZM86.839 13.7281C87.287 11.4561 88.919 10.4641 90.903 10.4641C92.983 10.4641 94.583 11.6801 94.807 13.7281H86.839Z" fill="white"/>
</svg>
