<svg width="99" height="31" viewBox="0 0 99 31" fill="none" xmlns="http://www.w3.org/2000/svg">
<path d="M0.760273 8.05591V11.5119H8.21627L0.280273 20.1199V22.9999H13.5923V19.5439H5.52827L13.5923 10.9679V8.05591H0.760273Z" fill="black"/>
<path d="M28.5385 10.1359C27.5465 8.56791 25.5625 7.67191 23.5145 7.67191C19.2905 7.67191 16.2185 10.9999 16.2185 15.5119C16.2185 20.1519 19.4185 23.3839 23.4185 23.3839C25.5625 23.3839 27.5465 22.2959 28.5385 20.6639V22.9999H32.2505V8.05591H28.5385V10.1359ZM24.1865 19.9279C21.7545 19.9279 19.9305 17.9119 19.9305 15.5119C19.9305 13.1119 21.7545 11.1279 24.1545 11.1279C26.3625 11.1279 28.4745 12.9519 28.4745 15.5119C28.4745 18.0079 26.4905 19.9279 24.1865 19.9279Z" fill="black"/>
<path d="M45.349 7.67191C43.557 7.67191 41.413 8.43991 40.389 10.0399V8.05591H36.677V30.2959H40.389V21.0159C41.413 22.6159 43.493 23.3839 45.381 23.3839C49.317 23.3839 52.709 20.3119 52.709 15.5439C52.709 10.7439 49.285 7.67191 45.349 7.67191ZM44.773 19.9279C42.629 19.9279 40.453 18.1999 40.453 15.5439C40.453 12.9199 42.501 11.1279 44.773 11.1279C47.077 11.1279 48.997 13.0799 48.997 15.5439C48.997 18.0399 47.077 19.9279 44.773 19.9279Z" fill="black"/>
<path d="M64.9115 7.67191C63.1195 7.67191 60.9755 8.43991 59.9515 10.0399V8.05591H56.2395V30.2959H59.9515V21.0159C60.9755 22.6159 63.0555 23.3839 64.9435 23.3839C68.8795 23.3839 72.2715 20.3119 72.2715 15.5439C72.2715 10.7439 68.8475 7.67191 64.9115 7.67191ZM64.3355 19.9279C62.1915 19.9279 60.0155 18.1999 60.0155 15.5439C60.0155 12.9199 62.0635 11.1279 64.3355 11.1279C66.6395 11.1279 68.5595 13.0799 68.5595 15.5439C68.5595 18.0399 66.6395 19.9279 64.3355 19.9279Z" fill="black"/>
<path d="M77.658 5.0479C79.002 5.0479 80.058 4.05591 80.058 2.77591C80.058 1.46391 79.002 0.503906 77.658 0.503906C76.346 0.503906 75.226 1.46391 75.226 2.77591C75.226 4.05591 76.346 5.0479 77.658 5.0479ZM79.514 22.9999V8.05591H75.802V22.9999H79.514Z" fill="black"/>
<path d="M98.487 15.3839C98.487 10.7119 95.127 7.67191 90.871 7.67191C86.583 7.67191 83.031 10.7439 83.031 15.5119C83.031 20.1839 86.423 23.3839 90.871 23.3839C93.591 23.3839 96.247 22.1679 97.623 19.9919L95.127 18.1039C94.263 19.3199 92.695 20.0239 91.095 20.0239C88.855 20.0239 87.255 18.9039 86.839 16.8239H98.423C98.455 16.2799 98.487 15.7999 98.487 15.3839ZM86.839 14.2319C87.287 11.9599 88.919 10.9679 90.903 10.9679C92.983 10.9679 94.583 12.1839 94.807 14.2319H86.839Z" fill="black"/>
</svg>
