<svg width="99" height="31" viewBox="0 0 99 31" fill="none" xmlns="http://www.w3.org/2000/svg">
<path d="M0.760273 8.05603V11.512H8.21627L0.280273 20.12V23H13.5923V19.544H5.52827L13.5923 10.968V8.05603H0.760273Z" fill="white"/>
<path d="M28.5385 10.136C27.5465 8.56803 25.5625 7.67203 23.5145 7.67203C19.2905 7.67203 16.2185 11 16.2185 15.512C16.2185 20.152 19.4185 23.384 23.4185 23.384C25.5625 23.384 27.5465 22.296 28.5385 20.664V23H32.2505V8.05603H28.5385V10.136ZM24.1865 19.928C21.7545 19.928 19.9305 17.912 19.9305 15.512C19.9305 13.112 21.7545 11.128 24.1545 11.128C26.3625 11.128 28.4745 12.952 28.4745 15.512C28.4745 18.008 26.4905 19.928 24.1865 19.928Z" fill="white"/>
<path d="M45.349 7.67203C43.557 7.67203 41.413 8.44003 40.389 10.04V8.05603H36.677V30.296H40.389V21.016C41.413 22.616 43.493 23.384 45.381 23.384C49.317 23.384 52.709 20.312 52.709 15.544C52.709 10.744 49.285 7.67203 45.349 7.67203ZM44.773 19.928C42.629 19.928 40.453 18.2 40.453 15.544C40.453 12.92 42.501 11.128 44.773 11.128C47.077 11.128 48.997 13.08 48.997 15.544C48.997 18.04 47.077 19.928 44.773 19.928Z" fill="white"/>
<path d="M64.9115 7.67203C63.1195 7.67203 60.9755 8.44003 59.9515 10.04V8.05603H56.2395V30.296H59.9515V21.016C60.9755 22.616 63.0555 23.384 64.9435 23.384C68.8795 23.384 72.2715 20.312 72.2715 15.544C72.2715 10.744 68.8475 7.67203 64.9115 7.67203ZM64.3355 19.928C62.1915 19.928 60.0155 18.2 60.0155 15.544C60.0155 12.92 62.0635 11.128 64.3355 11.128C66.6395 11.128 68.5595 13.08 68.5595 15.544C68.5595 18.04 66.6395 19.928 64.3355 19.928Z" fill="white"/>
<path d="M77.658 5.04803C79.002 5.04803 80.058 4.05603 80.058 2.77603C80.058 1.46403 79.002 0.504028 77.658 0.504028C76.346 0.504028 75.226 1.46403 75.226 2.77603C75.226 4.05603 76.346 5.04803 77.658 5.04803ZM79.514 23V8.05603H75.802V23H79.514Z" fill="white"/>
<path d="M98.487 15.384C98.487 10.712 95.127 7.67203 90.871 7.67203C86.583 7.67203 83.031 10.744 83.031 15.512C83.031 20.184 86.423 23.384 90.871 23.384C93.591 23.384 96.247 22.168 97.623 19.992L95.127 18.104C94.263 19.32 92.695 20.024 91.095 20.024C88.855 20.024 87.255 18.904 86.839 16.824H98.423C98.455 16.28 98.487 15.8 98.487 15.384ZM86.839 14.232C87.287 11.96 88.919 10.968 90.903 10.968C92.983 10.968 94.583 12.184 94.807 14.232H86.839Z" fill="white"/>
</svg>
