<svg width="64" height="19" viewBox="0 0 64 19" fill="none" xmlns="http://www.w3.org/2000/svg">
<path d="M19.584 0.0400391V18.216H16.64V0.0400391H19.584ZM24.704 5.92804V13.016C24.7136 13.9216 24.9914 15.528 26.752 15.528C27.52 15.528 29.824 15.272 29.824 12.456V5.92804H32.768V18.216H29.824V17.192C29.056 17.96 27.776 18.216 26.752 18.216C25.344 18.216 24.192 17.832 23.296 16.936C22.272 16.04 21.76 14.504 21.76 12.84V5.92804H24.704ZM38.528 1.44804V5.92804H40.704V8.74404H38.528V18.216H35.584V8.74404H33.408V5.92804H35.584V1.44804H38.528ZM47.488 5.67204C49.152 5.67204 50.688 6.31204 51.84 7.33604L52.352 7.72004L50.304 9.64004L49.92 9.25604C49.28 8.61604 48.384 8.36004 47.488 8.36004C45.44 8.36004 44.032 9.76804 44.032 11.816C44.032 13.864 45.44 15.4 47.488 15.4C48.384 15.4 49.28 15.016 49.92 14.504L50.304 14.12L52.352 16.168L51.84 16.552C50.688 17.576 49.152 18.216 47.488 18.216C43.904 18.216 41.216 15.528 41.216 11.944C41.216 8.36004 43.904 5.67204 47.488 5.67204ZM56.704 0.0400391V6.69604C57.472 5.92804 58.496 5.67204 59.52 5.67204C60.928 5.67204 61.824 6.05604 62.72 6.95204C63.616 7.84804 64 9.38404 64 11.048V18.088H61.056V10.874C61.0598 9.96836 61.1536 8.36004 59.392 8.36004C58.624 8.36004 56.704 8.61604 56.704 11.432V18.216H53.76V0.0400391H56.704ZM0 9.38404C0 4.39204 3.584 0.552039 8.448 0.680039C10.752 0.680039 12.928 1.57604 14.592 3.24004L14.976 3.62404L13.056 5.54404L12.672 5.16004C11.52 4.00804 9.984 3.36804 8.448 3.36804C5.12 3.36804 2.816 5.92804 2.816 9.38404C2.816 12.84 5.12 15.4 8.32 15.4C9.984 15.4 11.52 14.76 12.544 13.736L12.928 13.352L14.848 15.272L14.464 15.656C12.928 17.32 10.624 18.216 8.32 18.216C3.584 18.216 0 14.376 0 9.38404H0ZM47.36 9.89604C47.9032 9.89604 48.4241 10.1118 48.8082 10.4959C49.1922 10.88 49.408 11.4009 49.408 11.944C49.408 12.4872 49.1922 13.0081 48.8082 13.3922C48.4241 13.7763 47.9032 13.992 47.36 13.992C46.8168 13.992 46.2959 13.7763 45.9118 13.3922C45.5278 13.0081 45.312 12.4872 45.312 11.944C45.312 11.4009 45.5278 10.88 45.9118 10.4959C46.2959 10.1118 46.8168 9.89604 47.36 9.89604Z" fill="#13032D"/>
</svg>
