<svg width="6" height="19" viewBox="0 0 6 19" fill="none" xmlns="http://www.w3.org/2000/svg">
<path d="M5.22404 17.3919L5.06011 18.1836C4.3898 18.4887 3.85428 18.699 3.45355 18.8145C3.05282 18.9382 2.71038 19 2.42623 19C1.84335 19 1.40619 18.8309 1.11475 18.4928C0.823315 18.1465 0.677596 17.7218 0.677596 17.2188C0.677596 17.0291 0.692168 16.8312 0.721311 16.625C0.750455 16.4188 0.797814 16.1591 0.863388 15.8457L2.02186 10.5885C2.08015 10.2999 2.13479 9.99067 2.18579 9.66081C2.24408 9.33095 2.27322 9.05056 2.27322 8.81966C2.27322 8.35786 2.20401 8.05273 2.06557 7.9043C1.93443 7.74761 1.6612 7.66927 1.2459 7.66927C1.08561 7.66927 0.870674 7.69813 0.601093 7.75586C0.338798 7.81359 0.138434 7.86306 0 7.9043L0.163934 7.11263C0.73224 6.824 1.24226 6.60959 1.69399 6.4694C2.14572 6.32921 2.50273 6.25911 2.76503 6.25911C3.36248 6.25911 3.79599 6.41992 4.06557 6.74154C4.33515 7.06315 4.46995 7.49609 4.46995 8.04036C4.46995 8.1888 4.45537 8.39084 4.42623 8.64648C4.39709 8.90213 4.35337 9.15777 4.29508 9.41341L3.12568 14.6706C3.05282 14.9922 2.98725 15.3097 2.92896 15.623C2.87796 15.9282 2.85246 16.1797 2.85246 16.3776C2.85246 16.8477 2.94353 17.1693 3.12568 17.3424C3.31512 17.5156 3.61749 17.6022 4.03279 17.6022C4.17122 17.6022 4.36794 17.5816 4.62295 17.5404C4.88525 17.4991 5.08561 17.4497 5.22404 17.3919ZM6 1.58333C6 2.05339 5.86521 2.46571 5.59563 2.82031C5.32605 3.16667 4.99089 3.33984 4.59016 3.33984C4.21858 3.33984 3.898 3.17491 3.62842 2.84505C3.35883 2.50694 3.22404 2.12348 3.22404 1.69466C3.22404 1.2411 3.35883 0.845269 3.62842 0.507161C3.898 0.169054 4.21858 0 4.59016 0C5.00546 0 5.34426 0.160807 5.60656 0.482422C5.86885 0.79579 6 1.16276 6 1.58333Z" fill="#13032D"/>
</svg>
