<svg width="12" height="18" viewBox="0 0 12 18" fill="none" xmlns="http://www.w3.org/2000/svg">
<g clip-path="url(#clip0)">
<path d="M2.96091 18C4.5948 18 5.92085 16.656 5.92085 15V12H2.96091C1.32703 12 0.000976562 13.344 0.000976562 15C0.000976562 16.656 1.32703 18 2.96091 18Z" fill="#5FCB8A"/>
<path d="M0.000976562 9C0.000976562 7.344 1.32703 6 2.96091 6H5.92085V12H2.96091C1.32703 12 0.000976562 10.656 0.000976562 9Z" fill="#9764F6"/>
<path d="M0.00195312 3C0.00195312 1.344 1.328 0 2.96189 0H5.92183V6H2.96189C1.328 6 0.00195312 4.656 0.00195312 3Z" fill="#E15932"/>
<path d="M5.9209 0H8.88083C10.5147 0 11.8408 1.344 11.8408 3C11.8408 4.656 10.5147 6 8.88083 6H5.9209V0Z" fill="#EF7A69"/>
<path d="M11.8408 9C11.8408 10.656 10.5147 12 8.88083 12C7.24695 12 5.9209 10.656 5.9209 9C5.9209 7.344 7.24695 6 8.88083 6C10.5147 6 11.8408 7.344 11.8408 9Z" fill="#55BBF8"/>
</g>
<defs>
<clipPath id="clip0">
<rect width="11.8421" height="18" fill="white"/>
</clipPath>
</defs>
</svg>
