<svg width="32" height="18" viewBox="0 0 32 18" fill="none" xmlns="http://www.w3.org/2000/svg">
<path d="M23.8067 5.40662L26.4611 0.808315C26.6109 0.550533 26.5204 0.223079 26.2661 0.0732852C26.0118 -0.0765059 25.6808 0.0105803 25.5345 0.268364L22.8452 4.92589C20.7934 3.98881 18.4838 3.46628 16 3.46628C13.5162 3.46628 11.2066 3.98881 9.1548 4.92589L6.46549 0.268364C6.3157 0.0105803 5.98824 -0.0765059 5.73046 0.0732852C5.47267 0.223079 5.38559 0.550533 5.53538 0.808315L8.18985 5.40662C3.61245 7.88692 0.512083 12.5201 0 17.944H32C31.4879 12.5201 28.3875 7.88692 23.8067 5.40662ZM8.65317 13.4502C7.91117 13.4502 7.312 12.8475 7.312 12.109C7.312 11.367 7.91465 10.7678 8.65317 10.7678C9.39517 10.7678 9.99434 11.3705 9.99434 12.109C9.99784 12.8475 9.39517 13.4502 8.65317 13.4502ZM23.3433 13.4502C22.6014 13.4502 22.0022 12.8475 22.0022 12.109C22.0022 11.367 22.6048 10.7678 23.3433 10.7678C24.0854 10.7678 24.6845 11.3705 24.6845 12.109C24.688 12.8475 24.0854 13.4502 23.3433 13.4502Z" fill="#32DE84"/>
</svg>
