<svg width="27" height="32" viewBox="0 0 27 32" fill="none" xmlns="http://www.w3.org/2000/svg">
<path d="M26.1078 24.9377C25.629 26.0557 25.0623 27.0848 24.4057 28.031C23.5107 29.3208 22.7779 30.2136 22.2131 30.7094C21.3376 31.5232 20.3996 31.94 19.3952 31.9637C18.6741 31.9637 17.8045 31.7563 16.7922 31.3355C15.7766 30.9168 14.8433 30.7094 13.9899 30.7094C13.0949 30.7094 12.135 30.9168 11.1083 31.3355C10.08 31.7563 9.25165 31.9755 8.6183 31.9973C7.65509 32.0387 6.695 31.6101 5.73667 30.7094C5.12502 30.1701 4.35996 29.2457 3.44345 27.9361C2.46011 26.5377 1.65167 24.916 1.01832 23.0672C0.340026 21.0702 0 19.1364 0 17.2643C0 15.1197 0.458449 13.2701 1.37672 11.7201C2.09839 10.4751 3.05848 9.49305 4.2601 8.77208C5.46172 8.05112 6.76008 7.68372 8.15829 7.66022C8.92335 7.66022 9.92662 7.89942 11.1734 8.36953C12.4166 8.84122 13.2149 9.08042 13.5649 9.08042C13.8266 9.08042 14.7134 8.80072 16.2167 8.24311C17.6384 7.72599 18.8382 7.51187 19.8212 7.59622C22.4847 7.81349 24.4858 8.8748 25.8166 10.7868C23.4345 12.2458 22.2561 14.2892 22.2795 16.9105C22.301 18.9523 23.0339 20.6514 24.4741 22.0005C25.1268 22.6267 25.8557 23.1106 26.6667 23.4543C26.4908 23.9698 26.3051 24.4637 26.1078 24.9377ZM19.999 0.640182C19.999 2.24055 19.4206 3.7348 18.2676 5.11787C16.8763 6.76207 15.1933 7.71216 13.3683 7.56224C13.3451 7.37025 13.3316 7.16818 13.3316 6.95584C13.3316 5.41949 13.9933 3.7753 15.1683 2.43094C15.7549 1.75027 16.5011 1.1843 17.4058 0.73282C18.3087 0.288073 19.1626 0.0421187 19.9658 0C19.9893 0.213944 19.999 0.427901 19.999 0.640162V0.640182Z" fill="#13032D"/>
</svg>
