<svg width="21" height="18" viewBox="0 0 21 18" fill="none" xmlns="http://www.w3.org/2000/svg">
<path d="M20.2124 9.00206C20.2124 7.66308 18.5356 6.39414 15.9648 5.60723C16.558 2.98695 16.2943 0.902266 15.1325 0.234836C14.8647 0.0782787 14.5516 0.00411987 14.2097 0.00411987V0.922866C14.3992 0.922866 14.5516 0.959945 14.6793 1.02998C15.2396 1.35134 15.4827 2.57496 15.2932 4.14878C15.2479 4.53605 15.1737 4.94392 15.0831 5.36004C14.2756 5.16228 13.3939 5.00984 12.4669 4.91096C11.9107 4.14878 11.3339 3.45663 10.753 2.851C12.0961 1.60265 13.3568 0.918746 14.2138 0.918746V0C13.0808 0 11.5976 0.807508 10.098 2.20829C8.59831 0.815748 7.11513 0.0164798 5.98215 0.0164798V0.935225C6.83497 0.935225 8.09979 1.61501 9.44289 2.85512C8.8661 3.46075 8.28931 4.14878 7.74136 4.91096C6.81025 5.00984 5.92859 5.16228 5.12108 5.36416C5.02632 4.95216 4.95628 4.55253 4.90684 4.16937C4.71321 2.59556 4.95216 1.37194 5.50835 1.04646C5.63195 0.972305 5.79263 0.939345 5.98215 0.939345V0.0205997C5.63607 0.0205997 5.32296 0.0947585 5.05104 0.251316C3.89334 0.918746 3.63378 2.99931 4.23117 5.61135C1.66857 6.40238 0 7.6672 0 9.00206C0 10.341 1.67681 11.61 4.24765 12.3969C3.65438 15.0172 3.91806 17.1019 5.07988 17.7693C5.34768 17.9258 5.66079 18 6.00687 18C7.13985 18 8.62303 17.1925 10.1227 15.7917C11.6223 17.1843 13.1055 17.9835 14.2385 17.9835C14.5846 17.9835 14.8977 17.9094 15.1696 17.7528C16.3273 17.0854 16.5869 15.0048 15.9895 12.3928C18.5438 11.6059 20.2124 10.3369 20.2124 9.00206ZM14.8482 6.25406C14.6958 6.78553 14.5063 7.33349 14.2921 7.88144C14.1231 7.55184 13.946 7.22225 13.7523 6.89265C13.5628 6.56306 13.361 6.2417 13.1591 5.92859C13.7441 6.01511 14.3085 6.12222 14.8482 6.25406ZM12.9613 10.6418C12.64 11.198 12.3104 11.7253 11.9684 12.2156C11.3545 12.2692 10.7324 12.298 10.1062 12.298C9.48409 12.298 8.86198 12.2692 8.25223 12.2197C7.91028 11.7295 7.57656 11.2062 7.25521 10.6542C6.94209 10.1144 6.65782 9.56649 6.39826 9.01442C6.6537 8.46235 6.94209 7.91028 7.25109 7.37056C7.57244 6.81437 7.90204 6.28702 8.24399 5.79675C8.85786 5.74319 9.47997 5.71435 10.1062 5.71435C10.7283 5.71435 11.3504 5.74319 11.9602 5.79263C12.3021 6.2829 12.6358 6.80613 12.9572 7.35821C13.2703 7.89792 13.5546 8.44587 13.8141 8.99794C13.5546 9.55001 13.2703 10.1021 12.9613 10.6418ZM14.2921 10.1062C14.5145 10.6583 14.7041 11.2103 14.8606 11.7459C14.3209 11.8778 13.7523 11.989 13.1632 12.0755C13.3651 11.7583 13.5669 11.4328 13.7565 11.0991C13.946 10.7695 14.1231 10.4358 14.2921 10.1062ZM10.1144 14.5022C9.73129 14.1067 9.34813 13.6658 8.9691 13.1838C9.3399 13.2003 9.71893 13.2126 10.1021 13.2126C10.4894 13.2126 10.8725 13.2044 11.2474 13.1838C10.8766 13.6658 10.4935 14.1067 10.1144 14.5022ZM7.04921 12.0755C6.46418 11.989 5.89975 11.8819 5.36004 11.7501C5.51247 11.2186 5.70199 10.6706 5.91623 10.1227C6.08514 10.4523 6.2623 10.7819 6.45594 11.1115C6.64958 11.4411 6.84733 11.7624 7.04921 12.0755ZM10.0938 3.50195C10.477 3.89746 10.8602 4.33829 11.2392 4.82032C10.8684 4.80384 10.4894 4.79149 10.1062 4.79149C9.71893 4.79149 9.33578 4.79973 8.96086 4.82032C9.33166 4.33829 9.71481 3.89746 10.0938 3.50195ZM7.04509 5.92859C6.84321 6.24582 6.64134 6.5713 6.45182 6.90501C6.2623 7.23461 6.08514 7.5642 5.91623 7.8938C5.69375 7.34173 5.50423 6.78965 5.34768 6.25406C5.88739 6.12634 6.45594 6.01511 7.04509 5.92859ZM3.31655 11.0867C1.85809 10.4646 0.914626 9.64889 0.914626 9.00206C0.914626 8.35523 1.85809 7.53536 3.31655 6.91737C3.67086 6.76493 4.05814 6.62898 4.45777 6.50126C4.69261 7.30877 5.0016 8.14923 5.38476 9.0103C5.00572 9.86725 4.70085 10.7036 4.47013 11.507C4.06226 11.3793 3.67498 11.2392 3.31655 11.0867ZM5.53307 16.9741C4.97276 16.6528 4.72969 15.4292 4.9192 13.8553C4.96452 13.4681 5.03868 13.0602 5.12932 12.6441C5.93683 12.8418 6.81849 12.9943 7.74548 13.0932C8.30167 13.8553 8.87846 14.5475 9.45937 15.1531C8.11627 16.4015 6.85557 17.0854 5.99863 17.0854C5.81323 17.0813 5.65667 17.0442 5.53307 16.9741ZM15.3056 13.8347C15.4992 15.4086 15.2602 16.6322 14.7041 16.9577C14.5805 17.0318 14.4198 17.0648 14.2303 17.0648C13.3774 17.0648 12.1126 16.385 10.7695 15.1449C11.3463 14.5393 11.9231 13.8512 12.471 13.089C13.4022 12.9902 14.2838 12.8377 15.0913 12.6358C15.1861 13.052 15.2602 13.4516 15.3056 13.8347ZM16.8917 11.0867C16.5374 11.2392 16.1501 11.3751 15.7505 11.5029C15.5157 10.6954 15.2067 9.85489 14.8235 8.99382C15.2026 8.13687 15.5074 7.30053 15.7382 6.49714C16.146 6.62486 16.5333 6.76493 16.8959 6.91737C18.3543 7.53948 19.2978 8.35523 19.2978 9.00206C19.2937 9.64889 18.3502 10.4688 16.8917 11.0867Z" fill="#61DAFB"/>
<path d="M10.1016 10.8848C11.1414 10.8848 11.9844 10.0418 11.9844 9.00195C11.9844 7.9621 11.1414 7.11914 10.1016 7.11914C9.06171 7.11914 8.21875 7.9621 8.21875 9.00195C8.21875 10.0418 9.06171 10.8848 10.1016 10.8848Z" fill="#61DAFB"/>
</svg>
