<svg width="22" height="19" viewBox="0 0 22 19" fill="none" xmlns="http://www.w3.org/2000/svg">
<g opacity="0.32">
<path d="M7.04231 14.367C7.30312 14.7303 7.63296 15.0606 8.03183 15.3578C8.354 15.6055 8.76822 15.8367 9.27449 16.0514C9.78075 16.2495 10.3791 16.3486 11.0694 16.3486C11.591 16.3486 12.0513 16.2825 12.4502 16.1504C12.849 16.0018 13.1865 15.8119 13.4627 15.5807C13.7388 15.333 13.9459 15.0523 14.084 14.7385C14.2221 14.4248 14.2911 14.0945 14.2911 13.7477C14.2911 13.2689 14.1684 12.8808 13.9229 12.5836C13.6775 12.2698 13.3553 12.0056 12.9564 11.7909C12.5575 11.5762 12.105 11.3946 11.5987 11.246C11.0924 11.0974 10.5708 10.9405 10.0339 10.7753C9.49694 10.5937 8.97533 10.3873 8.46906 10.1561C7.9628 9.9084 7.51023 9.6029 7.11135 9.23961C6.71247 8.85981 6.3903 8.39743 6.14484 7.85249C5.89938 7.30755 5.77665 6.63051 5.77665 5.82135C5.77665 5.17734 5.89938 4.56634 6.14484 3.98838C6.40565 3.3939 6.77384 2.87373 7.24942 2.42787C7.72501 1.98201 8.30031 1.63523 8.97533 1.38753C9.66569 1.12332 10.4404 0.991211 11.2996 0.991211C12.1433 0.991211 12.8797 1.1068 13.5087 1.33799C14.1377 1.56918 14.6593 1.82513 15.0735 2.10586C15.5798 2.43613 16.0094 2.80768 16.3622 3.22051L14.6363 5.07826C14.4062 4.78102 14.1224 4.50855 13.7849 4.26085C13.5087 4.06269 13.1635 3.88104 12.7493 3.71591C12.3351 3.55078 11.8518 3.46821 11.2996 3.46821C10.3177 3.46821 9.57364 3.70765 9.06738 4.18654C8.56111 4.64891 8.30798 5.19385 8.30798 5.82135C8.30798 6.30024 8.43071 6.69656 8.67617 7.01031C8.92164 7.30755 9.2438 7.56351 9.64268 7.77818C10.0416 7.99286 10.4941 8.1745 11.0004 8.32312C11.5067 8.47174 12.0283 8.63687 12.5652 8.81852C13.1022 8.98365 13.6238 9.19007 14.13 9.43777C14.6363 9.66896 15.0889 9.97445 15.4878 10.3543C15.8866 10.7176 16.2088 11.1717 16.4543 11.7166C16.6997 12.2615 16.8225 12.9386 16.8225 13.7477C16.8225 14.4248 16.6844 15.0771 16.4082 15.7046C16.1474 16.3156 15.7716 16.8522 15.2806 17.3146C14.7897 17.777 14.1837 18.1485 13.4627 18.4293C12.757 18.6935 11.9592 18.8256 11.0694 18.8256C10.0876 18.8256 9.23613 18.6935 8.51509 18.4293C7.80938 18.1485 7.21107 17.843 6.72014 17.5128C6.16785 17.133 5.69994 16.7036 5.31641 16.2247L7.04231 14.367Z" fill="#716881"/>
<path fill-rule="evenodd" clip-rule="evenodd" d="M22.0002 11.3467H0.138672V8.47021H22.0002V11.3467Z" fill="#716881"/>
</g>
</svg>
