<svg width="13" height="19" viewBox="0 0 13 19" fill="none" xmlns="http://www.w3.org/2000/svg">
<g opacity="0.32">
<path d="M2.35651 0V8.64412C2.35651 9.20668 2.45648 9.72807 2.65643 10.2083C2.85638 10.6885 3.13487 11.107 3.49192 11.4638C3.84897 11.8068 4.27028 12.0743 4.75587 12.2664C5.24145 12.4585 5.76274 12.5546 6.31974 12.5546C6.86245 12.5546 7.36945 12.4517 7.84076 12.2458C8.32634 12.04 8.74766 11.7656 9.1047 11.4226C9.46175 11.0658 9.74739 10.6474 9.96162 10.1671C10.1758 9.6869 10.283 9.17923 10.283 8.64412V0H12.6395V8.64412C12.6395 9.52225 12.4824 10.3249 12.1682 11.0521C11.8682 11.7793 11.4398 12.4105 10.8828 12.9456C10.3258 13.467 9.6617 13.8786 8.89047 14.1805C8.11925 14.4686 7.26234 14.6127 6.31974 14.6127C5.37713 14.6127 4.52022 14.4686 3.749 14.1805C2.97777 13.8786 2.31367 13.467 1.75667 12.9456C1.19968 12.4105 0.764081 11.7793 0.449879 11.0521C0.14996 10.3249 0 9.52225 0 8.64412V0H2.35651Z" fill="#716881"/>
<path d="M0.161977 17.469H13V19H0.161977V17.469Z" fill="#716881"/>
</g>
</svg>
